<svg width="1200" height="500" xmlns="http://www.w3.org/2000/svg" data-name="Layer 1">

 <title>FBWordmark_Hex-RGB-1024</title>
 <g>
  <title>Layer 1</title>
  <path id="svg_1" fill="#1877F2" d="m422.43,191.68c-9.65,0 -12.44,4.28 -12.44,13.72l0,15.66l25.74,0l-2.58,25.3l-23.15,0l0,76.78l-30.89,0l0,-76.78l-20.81,0l0,-25.3l20.81,0l0,-15.23c0,-25.52 10.29,-39 39,-39a146.17,146.17 0 0 1 18,1.07l0,23.81l-13.68,-0.03z" class="cls-1"/>
  <path id="svg_2" fill="#1877F2" d="m437.87,268.88c0,-28.52 13.51,-50 41.82,-50c15.44,0 24.87,7.94 29.38,17.8l0,-15.62l29.59,0l0,102.08l-29.59,0l0,-15.44c-4.29,9.87 -13.94,17.59 -29.38,17.59c-28.31,0 -41.82,-21.45 -41.82,-50l0,-6.41zm30.88,6.87c0,15.22 5.57,25.3 19.94,25.3c12.66,0 19.09,-9.22 19.09,-23.8l0,-10.25c0,-14.58 -6.43,-23.8 -19.09,-23.8c-14.37,0 -19.94,10.08 -19.94,25.3l0,7.25z" class="cls-1"/>
  <path id="svg_3" fill="#1877F2" d="m603,218.91c12,0 23.37,2.58 29.59,6.86l-6.86,21.88a48.6,48.6 0 0 0 -20.59,-4.72c-16.73,0 -24,9.65 -24,26.17l0,6c0,16.52 7.29,26.17 24,26.17a48.6,48.6 0 0 0 20.59,-4.72l6.86,21.87c-6.22,4.29 -17.58,6.87 -29.59,6.87c-36.25,0 -52.76,-19.52 -52.76,-50.83l0,-4.72c0,-31.31 16.51,-50.83 52.76,-50.83z" class="cls-1"/>
  <path id="svg_4" fill="#1877F2" d="m636.66,276l0,-9c0,-28.95 16.51,-48 50.19,-48c31.74,0 45.68,19.3 45.68,47.61l0,16.3l-65,0c0.65,13.94 6.87,20.16 24,20.16c11.59,0 23.81,-2.36 32.82,-6.22l5.65,21.15c-8.15,4.3 -24.88,7.51 -39.67,7.51c-39.09,-0.01 -53.67,-19.51 -53.67,-49.51zm30.88,-13.3l37.32,0l0,-2.57c0,-11.15 -4.5,-20 -18,-20c-13.95,0.01 -19.32,8.81 -19.32,22.53l0,0.04z" class="cls-1"/>
  <path id="svg_5" fill="#1877F2" d="m847,275.32c0,28.52 -13.72,50 -42,50c-15.44,0 -26.16,-7.72 -30.45,-17.59l0,15.44l-29.16,0l0,-153.37l30.88,-2.8l0,68.2c4.5,-9 14.37,-16.3 28.74,-16.3c28.31,0 42,21.45 42,50l-0.01,6.42zm-30.88,-7.08c0,-14.37 -5.57,-25.09 -20.37,-25.09c-12.66,0 -19.52,9 -19.52,23.59l0,10.72c0,14.58 6.86,23.59 19.52,23.59c14.8,0 20.37,-10.72 20.37,-25.09l0,-7.72z" class="cls-1"/>
  <path id="svg_6" fill="#1877F2" d="m857.33,274.67l0,-5.14c0,-29.39 16.73,-50.62 50.83,-50.62s50.84,21.23 50.84,50.62l0,5.14c0,29.38 -16.73,50.62 -50.83,50.62s-50.84,-21.24 -50.84,-50.62zm70.78,-7.29c0,-13.51 -5.58,-24.23 -20,-24.23s-19.95,10.72 -19.95,24.23l0,9.44c0,13.51 5.58,24.23 19.95,24.23s20,-10.72 20,-24.23l0,-9.44z" class="cls-1"/>
  <path id="svg_7" fill="#1877F2" d="m969.27,274.67l0,-5.14c0,-29.39 16.73,-50.62 50.83,-50.62s50.83,21.23 50.83,50.62l0,5.14c0,29.38 -16.73,50.62 -50.83,50.62s-50.83,-21.24 -50.83,-50.62zm70.78,-7.29c0,-13.51 -5.58,-24.23 -19.95,-24.23s-19.94,10.72 -19.94,24.23l0,9.44c0,13.51 5.57,24.23 19.94,24.23s19.95,-10.72 19.95,-24.23l0,-9.44z" class="cls-1"/>
  <path id="svg_8" fill="#1877F2" d="m1113.39,269.74l30.45,-48.68l32.81,0l-31.95,50.4l33.24,51.68l-32.81,0l-31.74,-50l0,50l-30.89,0l0,-153.34l30.89,-2.8l0,102.74z" class="cls-1"/>
  <text font-style="normal" font-weight="bold" transform="matrix(6.5343 0 0 6.10035 -372.786 -1087.78)" stroke="null" xml:space="preserve" text-anchor="start" font-family="Noto Sans JP" font-size="30" stroke-width="0" id="svg_22" y="229.18567" x="61.03249" fill="#ff0000">Not</text>
 </g>
</svg>